Coordinates
version=1
nRows=21
nColumns=33
inDegrees=yes

Units are S.I. units (second, meters, Newtons, ...)
Angles are in degrees.

endheader
time	ground_thorax_rot_x	ground_thorax_rot_y	ground_thorax_rot_z	ground_thorax_tx	ground_thorax_ty	ground_thorax_tz	clav_prot_r	clav_elev_r	scapula_abduction_r	scapula_elevation_r	scapula_upward_rot_r	scapula_winging_r	shoulder_elv_r	plane_of_elev_r	axial_rot_r	elbow_flexion_r	pro_sup_r	wrist_flex_r	wrist_dev_r	clav_prot_l	clav_elev_l	scapula_abduction_l	scapula_elevation_l	scapula_upward_rot_l	scapula_winging_l	shoulder_elv_l	plane_of_elev_l	axial_rot_l	elbow_flexion_l	pro_sup_l	wrist_flex_l	wrist_dev_l
      2.55000000	     37.37261282	      1.88754892	      1.96794280	      9.93267617	    806.64921969	      3.66666201	     -7.62094700	     34.35833339	     45.00000000	     36.39002065	     45.00000000	  -2993.61575466	  -2824.70724647	     15.87754678	   -179.99999979	    724.81838515	    281.99961848	     14.71889262	     10.86392002	      6.54123395	    -45.00000000	    -45.00000000	     45.00000000	    -18.50195000	   2237.90557917	  -3697.92071182	    136.52036632	   -179.99999979	    364.96169493	     31.90288474	     12.20727370	    -18.99834640
      2.56000000	     37.27834369	      1.89576870	      2.32106668	     10.60602007	    806.56313947	      3.89930909	     -7.55883967	     34.00358905	     45.00000000	     35.92460896	     44.41988529	  -2993.11528420	  -2824.67801732	     15.91236531	   -179.99999979	    724.77167015	    282.09762397	     14.69777295	     10.79146591	      6.61998717	    -45.00000000	    -45.00000000	     45.00000000	    -18.62641667	   2237.98795357	  -3697.95463835	    136.64387625	   -179.99999979	    365.10593397	     31.90300862	     11.76979593	    -18.84459479
      2.57000000	     37.33719303	      1.72804757	      2.17502948	     10.95023042	    806.53481819	      4.08821632	     -7.50326751	     34.22012470	     45.00000000	     36.01932331	     45.00000000	  -2993.51449641	  -2824.62836789	     15.87584104	   -179.99999979	    724.65798250	    282.17321380	     14.58962233	     10.83867492	      6.50955550	    -45.00000000	    -45.00000000	     45.00000000	    -18.21165924	   2237.92247877	  -3698.01042411	    136.47560024	   -179.99999979	    364.71042839	     31.89383448	     11.73948298	    -18.90028355
      2.58000000	     37.36208881	      1.58252240	      2.04709344	     10.97854286	    806.52721638	      4.23498567	     -7.81520952	     34.01166317	     45.00000000	     36.07609472	     45.00000000	  -2993.44665314	  -2824.57673667	     15.82829699	   -179.99999979	    724.72259931	    282.30956544	     14.60058216	     10.77357221	      6.37355152	    -45.00000000	    -45.00000000	     45.00000000	    -17.99916966	   2237.78241029	  -3697.99419873	    136.63849622	   -179.99999979	    364.93347738	     31.70280386	     11.43845078	    -18.70092866
      2.59000000	     37.38081790	      1.52034885	      2.19234747	     10.71878624	    806.51288274	      4.34955682	     -7.57555933	     34.21296422	     45.00000000	     36.08045666	     45.00000000	  -2993.58440468	  -2824.57965079	     15.88270807	   -179.99999979	    724.73678915	    282.36979679	     14.56837386	     10.92075233	      6.36349366	    -45.00000000	    -45.00000000	     45.00000000	    -17.77885533	   2238.15864865	  -3698.18030969	    136.40794843	   -179.99999979	    364.69515611	     31.42944548	     11.59913678	    -18.93671527
      2.60000000	     37.43380572	      1.33507996	      2.14346366	     10.17622142	    806.47049725	      4.43132693	     -7.79374979	     34.07879395	     45.00000000	     36.13202405	     45.00000000	  -2993.49997971	  -2824.50073014	     15.81562471	   -179.99999979	    724.68997809	    282.35361946	     14.60748499	     10.78631215	      6.23681726	    -45.00000000	    -45.00000000	     45.00000000	    -17.79180771	   2237.95483163	  -3698.01382777	    136.75118319	   -179.99999979	    364.94582993	     31.00573045	     11.26475786	    -18.62813657
      2.61000000	     37.44597591	      1.33565082	      2.21504403	      9.37137580	    806.38504913	      4.47987308	     -7.62318050	     34.24829159	     45.00000000	     36.26402178	     45.00000000	  -2993.63560888	  -2824.32073496	     15.76472398	   -179.99999979	    724.71663657	    282.24994690	     14.48252904	     10.92767081	      6.27768022	    -45.00000000	    -45.00000000	     45.00000000	    -17.73193429	   2238.20725460	  -3698.03649063	    136.60472059	   -179.99999979	    364.76950203	     30.43706562	     11.55049559	    -18.86498086
      2.62000000	     37.54042836	      1.21174547	      2.29220189	      8.31363995	    806.24694361	      4.49728495	     -7.72259232	     34.40599860	     45.00000000	     36.39019280	     45.00000000	  -2993.88230291	  -2824.26942017	     15.96354514	   -179.99999979	    724.83709188	    282.06203671	     14.69786396	     11.01401858	      6.24639319	    -45.00000000	    -45.00000000	     45.00000000	    -17.46676077	   2238.67097141	  -3698.24811148	    136.40000103	   -179.99999979	    364.54972848	     29.89821215	     11.53946328	    -18.74134931
      2.63000000	     37.66785775	      1.03371221	      2.22419964	      7.00504925	    806.05081794	      4.48393467	     -7.65062570	     34.40860537	     45.00000000	     36.51810424	     44.99772916	  -2993.67150091	  -2824.07006922	     15.73827549	   -179.99999979	    724.61532461	    281.86404767	     14.26118839	     10.99557490	      6.12275970	    -45.00000000	    -45.00000000	     45.00000000	    -17.77713061	   2238.37257128	  -3697.95784391	    136.79889395	   -179.99999979	    364.80034880	     29.34501268	     11.82701306	    -19.04430308
      2.64000000	     37.75052548	      1.10459869	      2.31197358	      5.44946008	    805.79677728	      4.43899835	     -7.63136492	     34.60399318	     45.00000000	     36.78648190	     45.00000000	  -2993.99782420	  -2823.76299440	     15.77768662	   -179.99999979	    724.70754979	    281.54676190	     14.39969560	     11.05761488	      6.28769112	    -45.00000000	    -45.00000000	     45.00000000	    -17.83760541	   2238.74818032	  -3698.09677666	    136.53108791	   -179.99999979	    364.55743969	     28.71917594	     11.79071360	    -18.84172043
      2.65000000	     37.72229152	      0.89833817	      2.35944077	      3.64893937	    805.48894090	      4.36168904	     -7.65459664	     34.91710489	     45.00000000	     36.81320885	     45.00000000	  -2994.22607021	  -2823.66297109	     16.12561080	   -179.99999979	    724.94336949	    281.24892134	     14.68134554	     11.17097019	      6.21038107	    -45.00000000	    -45.00000000	     45.00000000	    -17.68125759	   2239.26074582	  -3698.14334908	    136.45724869	   -179.99999979	    364.47027347	     28.22572030	     11.97254942	    -18.98939897
      2.66000000	     37.95531163	      0.88055773	      2.30993211	      1.59291425	    805.13248309	      4.25057381	     -7.60739888	     34.96553254	     45.00000000	     37.18033341	     45.00000000	  -2994.12691856	  -2823.26320058	     15.76304277	   -179.99999979	    724.82199186	    280.98769108	     14.24327567	     11.14146831	      6.25026680	    -45.00000000	    -45.00000000	     45.00000000	    -18.07824367	   2239.03826263	  -3697.97077280	    136.63917388	   -179.99999979	    364.46520943	     27.79636525	     11.97687424	    -18.90290748
      2.67000000	     38.09524642	      0.86912328	      2.34218089	     -0.71546579	    804.73768049	      4.10619536	     -7.55191628	     35.18268397	     45.00000000	     37.41852854	     45.00000000	  -2994.40185324	  -2822.93203758	     15.86529248	   -179.99999979	    724.82761533	    280.70971612	     14.32683018	     11.16672356	      6.35202674	    -45.00000000	    -45.00000000	     45.00000000	    -18.24616776	   2239.33302795	  -3698.04310854	    136.53299834	   -179.99999979	    364.32650356	     27.43635869	     12.14476362	    -19.01969340
      2.68000000	     38.12478359	      0.67820052	      2.31907538	     -3.29251407	    804.31267324	      3.92927599	     -7.57211558	     35.39238805	     45.00000000	     37.64323708	     44.99012184	  -2994.71286479	  -2822.78965615	     16.02930306	   -179.99999979	    724.96491004	    280.51629173	     14.47707362	     11.16663818	      6.32538463	    -45.00000000	    -45.00000000	     45.00000000	    -18.31978148	   2239.82424642	  -3697.99631034	    136.39041501	   -179.99999979	    364.28078730	     27.21883428	     12.15666842	    -19.03779215
      2.69000000	     38.25978994	      0.58467861	      2.34745249	     -6.14128002	    803.86869339	      3.72350105	     -7.53584408	     35.58057351	     45.00000000	     37.91439258	     45.00000000	  -2994.74832326	  -2822.46828962	     15.85699453	   -179.99999979	    724.92233369	    280.41796726	     14.28579200	     11.14640576	      6.37063683	    -45.00000000	    -45.00000000	     45.00000000	    -18.59769716	   2239.90987016	  -3697.91742976	    136.65100131	   -179.99999979	    364.40011905	     27.10944623	     12.22216050	    -19.19222207
      2.70000000	     38.40441315	      0.56685733	      2.40503818	     -9.27100126	    803.41273764	      3.48608866	     -7.45118706	     35.81751030	     45.00000000	     38.14324067	     45.00000000	  -2995.03957404	  -2822.09532419	     15.94927536	   -179.99999979	    724.97998315	    280.40308021	     14.39279195	     11.10565969	      6.52057057	    -45.00000000	    -45.00000000	     45.00000000	    -19.00976231	   2240.25994477	  -3697.91212899	    136.45767888	   -179.99999979	    364.30382861	     27.11344119	     12.18503890	    -19.17592734
      2.71000000	     38.48853013	      0.60145095	      2.58605643	    -12.68203729	    802.95138475	      3.21329961	     -7.38077953	     36.05403647	     45.00000000	     38.39971647	     45.00000000	  -2995.16830093	  -2821.59889664	     15.78016181	   -179.99999979	    725.00413023	    280.56196128	     14.22778033	     11.08903502	      6.61605541	    -45.00000000	    -45.00000000	     45.00000000	    -19.67205098	   2240.40872826	  -3697.77119939	    136.64252495	   -179.99999979	    364.40262678	     27.18377947	     12.15949361	    -19.30122263
      2.72000000	     38.55407872	      0.60389430	      2.74304428	    -16.37491872	    802.48902615	      2.89756596	     -7.28402536	     36.27723677	     45.00000000	     38.59013033	     44.62827620	  -2995.28538646	  -2821.29652544	     15.81328294	   -179.99999979	    725.02378784	    280.86624872	     14.25781044	     11.02717625	      6.76801124	    -45.00000000	    -45.00000000	     45.00000000	    -20.22664492	   2240.75388454	  -3697.69747902	    136.66662023	   -179.99999979	    364.43728713	     27.34071609	     12.11904260	    -19.38051925
      2.73000000	     38.65947988	      0.35954061	      2.64222015	    -20.33621532	    802.03225696	      2.53519133	     -7.26627516	     36.44499475	     45.00000000	     38.75743264	     44.64664436	  -2995.40845417	  -2820.98186554	     15.81890329	   -179.99999979	    725.01387638	    281.24369273	     14.29918546	     10.94594541	      6.61324207	    -45.00000000	    -45.00000000	     45.00000000	    -20.22626846	   2241.10855573	  -3697.81250243	    136.75676538	   -179.99999979	    364.39853732	     27.63824887	     12.11988235	    -19.51197883
      2.74000000	     38.74079286	      0.17573868	      2.57711803	    -24.56230002	    801.58544974	      2.11948662	     -7.23758669	     36.59672039	     45.00000000	     38.90900188	     44.48515478	  -2995.53855472	  -2820.67908740	     15.84737532	   -179.99999979	    725.02199154	    281.70829005	     14.36926036	     10.86783762	      6.55785891	    -45.00000000	    -45.00000000	     45.00000000	    -20.33715850	   2241.49315978	  -3697.88885557	    136.78467856	   -179.99999979	    364.35341386	     28.05361888	     12.08902786	    -19.61836225
      2.75000000	     38.78769527	      0.02216553	      2.63507346	    -29.04664669	    801.15672457	      1.64740277	     -7.09842212	     36.75549742	     45.00000000	     39.03514558	     44.08923155	  -2995.56831533	  -2820.43381720	     15.83337538	   -179.99999979	    725.00077059	    282.27633161	     14.47253023	     10.79132321	      6.58216570	    -45.00000000	    -45.00000000	     45.00000000	    -20.65430862	   2241.87385993	  -3697.90601068	    137.01817921	   -179.99999979	    364.54687572	     28.55475287	     12.02668371	    -19.76226360
